# xmcd
#
# Track frame offsets:
#	150
#	1351
#	16189
#	28745
#	38069
#	50150
#	64831
#	76864
#	100830
#	127987
#	140802
#	155733
#	167525
#	184657
#	202097
#	214095
#	228053
#	238553
#	259667
#
# Disc length: 3601 seconds
#
# Revision: 1
# Processed by: cddbd v1.5.2PL0 Copyright (c) Steve Scherf et al.
# Submitted via: audiograbber 1.83.01
#
DISCID=fc0e0f13
DTITLE=ICMAG - ICMAG Christmas 2000
DYEAR=2000
DGENRE=Christmas
TTITLE0=Intro - B. Jeff Stone
TTITLE1=When It´s Christmas Time In Texas - B. Jeff and Patricia Stone
TTITLE2=Winterwondrland - Tina Raugh
TTITLE3=Baby Christ Child - Tom Horner
TTITLE4=Born This Day - Morgan and Morgann
TTITLE5=Christmas, Christmas - Mark Merritt
TTITLE6=Christmas Is A Day For Love - Ron Davis
TTITLE7=Christmas Miracle - Suzie Merwine
TTITLE8=Faith Santa - Hermann Lammers Meyerr and Norm Jean
TTITLE9=Holy Berry - Clyde Hardy
TTITLE10=Holy Holy - Dan Nash
TTITLE11=Jesus Won´t Come Down Auer Chimney - Jim Wilkerson
TTITLE12=Silent Night - Mark Bender, Daniel T Coates and Joe Sun
TTITLE13=Smokey Mountain Christmas - Lin Butler
TTITLE14=Sombody Shot Santa´s Rudolf - Willie Makkit
TTITLE15=What I Want For Christmas - Judy Weldon
TTITLE16=The Christmas Spirit - Groucho
TTITLE17=The Gift - Mark Bender
TTITLE18=Waltzing Mrs Santa - Shane Worley
EXTD=
EXTT0=
EXTT1=
EXTT2=
EXTT3=
EXTT4=
EXTT5=
EXTT6=
EXTT7=
EXTT8=
EXTT9=
EXTT10=
EXTT11=
EXTT12=
EXTT13=
EXTT14=
EXTT15=
EXTT16=
EXTT17=
EXTT18=
PLAYORDER=
